<mxfile host="app.diagrams.net" modified="2021-04-26T16:39:04.585Z" agent="5.0 (X11; Linux x86_64) AppleWebKit/537.36 (KHTML, like Gecko) Chrome/87.0.4280.141 Safari/537.36" etag="Q1FI4SwfkstX9czQuwKS" version="14.6.6" type="github">
  <diagram id="2b65b62c-36b4-7ad5-0130-103a9fcd3f7b" name="Page-1">
    <mxGraphModel dx="2450" dy="774" grid="1" gridSize="10" guides="1" tooltips="1" connect="1" arrows="1" fold="1" page="1" pageScale="1" pageWidth="1100" pageHeight="850" background="#ffffff" math="0" shadow="0">
      <root>
        <mxCell id="0" />
        <mxCell id="1" parent="0" />
        <mxCell id="11" value="Invitee" style="swimlane;fontStyle=1;align=center;verticalAlign=middle;childLayout=stackLayout;horizontal=1;startSize=33;horizontalStack=0;resizeParent=1;resizeParentMax=0;resizeLast=0;collapsible=1;marginBottom=0;swimlaneFillColor=#ffffff;strokeColor=#000000;strokeWidth=1;fillColor=none;fontSize=23;fontColor=#990000;perimeterSpacing=0;" parent="1" vertex="1">
          <mxGeometry x="830" y="472.5" width="380" height="224" as="geometry" />
        </mxCell>
        <mxCell id="12" value="- name: String&#xa;- number: int&#xa;- invitationDelivered: boolean&#xa;- accommodationRequested&#xa;- specialMenuRequested&#xa;- createdOn: LocalDateTime" style="text;strokeColor=none;fillColor=none;align=left;verticalAlign=top;spacingLeft=4;spacingRight=4;overflow=hidden;rotatable=0;points=[[0,0.5],[1,0.5]];portConstraint=eastwest;fontSize=20;" parent="11" vertex="1">
          <mxGeometry y="33" width="380" height="157" as="geometry" />
        </mxCell>
        <mxCell id="13" value="" style="line;strokeWidth=1;fillColor=none;align=left;verticalAlign=middle;spacingTop=-1;spacingLeft=3;spacingRight=3;rotatable=0;labelPosition=right;points=[];portConstraint=eastwest;" parent="11" vertex="1">
          <mxGeometry y="190" width="380" height="8" as="geometry" />
        </mxCell>
        <mxCell id="14" value=" " style="text;strokeColor=none;fillColor=none;align=left;verticalAlign=top;spacingLeft=4;spacingRight=4;overflow=hidden;rotatable=0;points=[[0,0.5],[1,0.5]];portConstraint=eastwest;" parent="11" vertex="1">
          <mxGeometry y="198" width="380" height="26" as="geometry" />
        </mxCell>
        <mxCell id="31" value="Event" style="swimlane;fontStyle=1;align=center;verticalAlign=middle;childLayout=stackLayout;horizontal=1;startSize=35;horizontalStack=0;resizeParent=1;resizeParentMax=0;resizeLast=0;collapsible=1;marginBottom=0;swimlaneFillColor=#ffffff;strokeColor=#000000;strokeWidth=1;fillColor=none;fontSize=23;fontColor=#990000;perimeterSpacing=0;" parent="1" vertex="1">
          <mxGeometry x="430" y="427.5" width="270" height="214" as="geometry" />
        </mxCell>
        <mxCell id="32" value="- name: String&#xa;- date: Date&#xa;" style="text;strokeColor=none;fillColor=none;align=left;verticalAlign=top;spacingLeft=4;spacingRight=4;overflow=hidden;rotatable=0;points=[[0,0.5],[1,0.5]];portConstraint=eastwest;fontSize=20;" parent="31" vertex="1">
          <mxGeometry y="35" width="270" height="145" as="geometry" />
        </mxCell>
        <mxCell id="33" value="" style="line;strokeWidth=1;fillColor=none;align=left;verticalAlign=middle;spacingTop=-1;spacingLeft=3;spacingRight=3;rotatable=0;labelPosition=right;points=[];portConstraint=eastwest;" parent="31" vertex="1">
          <mxGeometry y="180" width="270" height="8" as="geometry" />
        </mxCell>
        <mxCell id="34" value=" " style="text;strokeColor=none;fillColor=none;align=left;verticalAlign=top;spacingLeft=4;spacingRight=4;overflow=hidden;rotatable=0;points=[[0,0.5],[1,0.5]];portConstraint=eastwest;" parent="31" vertex="1">
          <mxGeometry y="188" width="270" height="26" as="geometry" />
        </mxCell>
        <mxCell id="47" value="Money" style="swimlane;fontStyle=1;align=center;verticalAlign=middle;childLayout=stackLayout;horizontal=1;startSize=35;horizontalStack=0;resizeParent=1;resizeParentMax=0;resizeLast=0;collapsible=1;marginBottom=0;swimlaneFillColor=#ffffff;strokeColor=#000000;strokeWidth=1;fillColor=none;fontSize=23;fontColor=#990000;perimeterSpacing=0;" parent="1" vertex="1">
          <mxGeometry x="84" y="314" width="270" height="164" as="geometry" />
        </mxCell>
        <mxCell id="48" value="- amount: String&#xa;- currency: Currency (enum)&#xa;&#xa;" style="text;strokeColor=none;fillColor=none;align=left;verticalAlign=top;spacingLeft=4;spacingRight=4;overflow=hidden;rotatable=0;points=[[0,0.5],[1,0.5]];portConstraint=eastwest;fontSize=20;" parent="47" vertex="1">
          <mxGeometry y="35" width="270" height="95" as="geometry" />
        </mxCell>
        <mxCell id="49" value="" style="line;strokeWidth=1;fillColor=none;align=left;verticalAlign=middle;spacingTop=-1;spacingLeft=3;spacingRight=3;rotatable=0;labelPosition=right;points=[];portConstraint=eastwest;" parent="47" vertex="1">
          <mxGeometry y="130" width="270" height="8" as="geometry" />
        </mxCell>
        <mxCell id="50" value=" " style="text;strokeColor=none;fillColor=none;align=left;verticalAlign=top;spacingLeft=4;spacingRight=4;overflow=hidden;rotatable=0;points=[[0,0.5],[1,0.5]];portConstraint=eastwest;" parent="47" vertex="1">
          <mxGeometry y="138" width="270" height="26" as="geometry" />
        </mxCell>
        <mxCell id="51" value="Contact" style="swimlane;fontStyle=1;align=center;verticalAlign=middle;childLayout=stackLayout;horizontal=1;startSize=35;horizontalStack=0;resizeParent=1;resizeParentMax=0;resizeLast=0;collapsible=1;marginBottom=0;swimlaneFillColor=#ffffff;strokeColor=#000000;strokeWidth=1;fillColor=none;fontSize=23;fontColor=#990000;perimeterSpacing=0;" parent="1" vertex="1">
          <mxGeometry x="10" y="807" width="270" height="144" as="geometry" />
        </mxCell>
        <mxCell id="52" value="&#xa;" style="text;strokeColor=none;fillColor=none;align=left;verticalAlign=top;spacingLeft=4;spacingRight=4;overflow=hidden;rotatable=0;points=[[0,0.5],[1,0.5]];portConstraint=eastwest;fontSize=20;" parent="51" vertex="1">
          <mxGeometry y="35" width="270" height="75" as="geometry" />
        </mxCell>
        <mxCell id="53" value="" style="line;strokeWidth=1;fillColor=none;align=left;verticalAlign=middle;spacingTop=-1;spacingLeft=3;spacingRight=3;rotatable=0;labelPosition=right;points=[];portConstraint=eastwest;" parent="51" vertex="1">
          <mxGeometry y="110" width="270" height="8" as="geometry" />
        </mxCell>
        <mxCell id="54" value=" " style="text;strokeColor=none;fillColor=none;align=left;verticalAlign=top;spacingLeft=4;spacingRight=4;overflow=hidden;rotatable=0;points=[[0,0.5],[1,0.5]];portConstraint=eastwest;" parent="51" vertex="1">
          <mxGeometry y="118" width="270" height="26" as="geometry" />
        </mxCell>
        <mxCell id="58" value="" style="endArrow=block;endSize=16;endFill=0;html=1;fontSize=16;fontColor=#990000;exitX=0.5;exitY=0;entryX=1;entryY=0.5;entryDx=0;entryDy=0;" parent="1" source="11" target="DzmEyF1N2hQkVVIjbfLj-112" edge="1">
          <mxGeometry width="160" relative="1" as="geometry">
            <mxPoint x="569.7058823529414" y="220.41176470588243" as="sourcePoint" />
            <mxPoint x="680" y="276" as="targetPoint" />
            <Array as="points">
              <mxPoint x="1020" y="283" />
            </Array>
          </mxGeometry>
        </mxCell>
        <mxCell id="61" value="" style="endArrow=block;endSize=16;endFill=0;html=1;fontSize=16;fontColor=#990000;exitX=0.5;exitY=0;entryX=0;entryY=0.5;entryDx=0;entryDy=0;" parent="1" source="47" edge="1" target="DzmEyF1N2hQkVVIjbfLj-112">
          <mxGeometry width="160" relative="1" as="geometry">
            <mxPoint x="569.7058823529414" y="220.41176470588243" as="sourcePoint" />
            <mxPoint x="440" y="276" as="targetPoint" />
            <Array as="points">
              <mxPoint x="219" y="283" />
            </Array>
          </mxGeometry>
        </mxCell>
        <mxCell id="63" value="" style="endArrow=block;endSize=16;endFill=0;html=1;fontSize=16;fontColor=#990000;entryX=-0.011;entryY=0.327;exitX=0.005;exitY=0.115;exitPerimeter=0;entryDx=0;entryDy=0;entryPerimeter=0;" parent="1" edge="1" target="DzmEyF1N2hQkVVIjbfLj-111">
          <mxGeometry width="160" relative="1" as="geometry">
            <mxPoint x="51.34999999999991" y="604.4749999999999" as="sourcePoint" />
            <mxPoint x="440" y="251.5" as="targetPoint" />
            <Array as="points">
              <mxPoint x="20" y="605" />
              <mxPoint x="20" y="260" />
            </Array>
          </mxGeometry>
        </mxCell>
        <mxCell id="64" value="" style="endArrow=block;endSize=16;endFill=0;html=1;fontSize=16;fontColor=#990000;exitX=0;exitY=0.5;entryX=0.007;entryY=0.125;entryDx=0;entryDy=0;entryPerimeter=0;" parent="1" source="52" edge="1" target="DzmEyF1N2hQkVVIjbfLj-111">
          <mxGeometry width="160" relative="1" as="geometry">
            <mxPoint x="-148.02941176470586" y="887.5294117647059" as="sourcePoint" />
            <mxPoint x="440" y="180" as="targetPoint" />
            <Array as="points">
              <mxPoint y="919" />
              <mxPoint x="10" y="240" />
            </Array>
          </mxGeometry>
        </mxCell>
        <mxCell id="70" value="&lt;font color=&quot;#330000&quot;&gt;inviterUser&lt;/font&gt;" style="text;html=1;resizable=0;points=[];autosize=1;align=left;verticalAlign=top;spacingTop=-4;fontSize=18;fontColor=#990000;" parent="1" vertex="1">
          <mxGeometry x="230" y="956.5" width="100" height="20" as="geometry" />
        </mxCell>
        <mxCell id="74" value="n" style="text;html=1;resizable=0;points=[];autosize=1;align=left;verticalAlign=top;spacingTop=-4;fontSize=18;fontColor=#990000;" parent="1" vertex="1">
          <mxGeometry x="590" y="720" width="30" height="20" as="geometry" />
        </mxCell>
        <mxCell id="79" value="1" style="text;html=1;resizable=0;points=[];autosize=1;align=left;verticalAlign=top;spacingTop=-4;fontSize=18;fontColor=#990000;" parent="1" vertex="1">
          <mxGeometry x="340" y="680" width="30" height="20" as="geometry" />
        </mxCell>
        <mxCell id="83" value="1" style="text;html=1;resizable=0;points=[];autosize=1;align=left;verticalAlign=top;spacingTop=-4;fontSize=18;fontColor=#990000;" parent="1" vertex="1">
          <mxGeometry x="710" y="550" width="30" height="20" as="geometry" />
        </mxCell>
        <mxCell id="84" value="&lt;font color=&quot;#330000&quot;&gt;invitees&lt;/font&gt;" style="text;html=1;resizable=0;points=[];autosize=1;align=left;verticalAlign=top;spacingTop=-4;fontSize=18;fontColor=#990000;" parent="1" vertex="1">
          <mxGeometry x="730" y="510" width="80" height="20" as="geometry" />
        </mxCell>
        <mxCell id="95" value="" style="endArrow=diamondThin;endFill=0;endSize=24;html=1;fontSize=18;fontColor=#990000;entryX=1;entryY=0.5;exitX=0;exitY=0.201;entryDx=0;entryDy=0;exitDx=0;exitDy=0;exitPerimeter=0;" parent="1" source="12" target="32" edge="1">
          <mxGeometry width="160" relative="1" as="geometry">
            <mxPoint x="600" y="370" as="sourcePoint" />
            <mxPoint x="570" y="417.5" as="targetPoint" />
            <Array as="points" />
          </mxGeometry>
        </mxCell>
        <mxCell id="98" value="n" style="text;html=1;resizable=0;points=[];autosize=1;align=left;verticalAlign=top;spacingTop=-4;fontSize=18;fontColor=#990000;" parent="1" vertex="1">
          <mxGeometry x="800" y="550.5" width="30" height="20" as="geometry" />
        </mxCell>
        <mxCell id="99" value="1" style="text;html=1;resizable=0;points=[];autosize=1;align=left;verticalAlign=top;spacingTop=-4;fontSize=18;fontColor=#990000;" parent="1" vertex="1">
          <mxGeometry x="330" y="830" width="30" height="20" as="geometry" />
        </mxCell>
        <mxCell id="DzmEyF1N2hQkVVIjbfLj-99" value="User" style="swimlane;fontStyle=1;align=center;verticalAlign=middle;childLayout=stackLayout;horizontal=1;startSize=35;horizontalStack=0;resizeParent=1;resizeParentMax=0;resizeLast=0;collapsible=1;marginBottom=0;swimlaneFillColor=#ffffff;strokeColor=#000000;strokeWidth=1;fillColor=none;fontSize=23;fontColor=#990000;perimeterSpacing=0;" parent="1" vertex="1">
          <mxGeometry x="440" y="742.5" width="270" height="194" as="geometry" />
        </mxCell>
        <mxCell id="DzmEyF1N2hQkVVIjbfLj-100" value="- name: String&#xa;- email: String&#xa;- password: String&#xa;- avatar: String&#xa;- providerId: String" style="text;strokeColor=none;fillColor=none;align=left;verticalAlign=top;spacingLeft=4;spacingRight=4;overflow=hidden;rotatable=0;points=[[0,0.5],[1,0.5]];portConstraint=eastwest;fontSize=20;" parent="DzmEyF1N2hQkVVIjbfLj-99" vertex="1">
          <mxGeometry y="35" width="270" height="125" as="geometry" />
        </mxCell>
        <mxCell id="DzmEyF1N2hQkVVIjbfLj-101" value="" style="line;strokeWidth=1;fillColor=none;align=left;verticalAlign=middle;spacingTop=-1;spacingLeft=3;spacingRight=3;rotatable=0;labelPosition=right;points=[];portConstraint=eastwest;" parent="DzmEyF1N2hQkVVIjbfLj-99" vertex="1">
          <mxGeometry y="160" width="270" height="8" as="geometry" />
        </mxCell>
        <mxCell id="DzmEyF1N2hQkVVIjbfLj-102" value=" " style="text;strokeColor=none;fillColor=none;align=left;verticalAlign=top;spacingLeft=4;spacingRight=4;overflow=hidden;rotatable=0;points=[[0,0.5],[1,0.5]];portConstraint=eastwest;" parent="DzmEyF1N2hQkVVIjbfLj-99" vertex="1">
          <mxGeometry y="168" width="270" height="26" as="geometry" />
        </mxCell>
        <mxCell id="DzmEyF1N2hQkVVIjbfLj-103" value="" style="endArrow=diamondThin;endFill=0;endSize=24;html=1;fontSize=18;fontColor=#990000;entryX=0.5;entryY=0;entryDx=0;entryDy=0;exitX=0.537;exitY=1.019;exitDx=0;exitDy=0;exitPerimeter=0;" parent="1" source="34" target="DzmEyF1N2hQkVVIjbfLj-99" edge="1">
          <mxGeometry width="160" relative="1" as="geometry">
            <mxPoint x="660" y="670" as="sourcePoint" />
            <mxPoint x="588" y="680" as="targetPoint" />
            <Array as="points" />
          </mxGeometry>
        </mxCell>
        <mxCell id="DzmEyF1N2hQkVVIjbfLj-104" value="m" style="text;html=1;resizable=0;points=[];autosize=1;align=left;verticalAlign=top;spacingTop=-4;fontSize=18;fontColor=#990000;" parent="1" vertex="1">
          <mxGeometry x="580" y="642.5" width="30" height="20" as="geometry" />
        </mxCell>
        <mxCell id="DzmEyF1N2hQkVVIjbfLj-105" value="&lt;font color=&quot;#330000&quot;&gt;events&lt;/font&gt;" style="text;html=1;resizable=0;points=[];autosize=1;align=left;verticalAlign=top;spacingTop=-4;fontSize=18;fontColor=#990000;" parent="1" vertex="1">
          <mxGeometry x="500" y="710" width="70" height="20" as="geometry" />
        </mxCell>
        <mxCell id="DzmEyF1N2hQkVVIjbfLj-106" value="&lt;font color=&quot;#330000&quot;&gt;organizers&lt;/font&gt;" style="text;html=1;resizable=0;points=[];autosize=1;align=left;verticalAlign=top;spacingTop=-4;fontSize=18;fontColor=#990000;" parent="1" vertex="1">
          <mxGeometry x="485" y="650" width="100" height="20" as="geometry" />
        </mxCell>
        <mxCell id="DzmEyF1N2hQkVVIjbfLj-107" value="&lt;&lt;abstract class&gt;&gt;&#xa;AbstractModel&#xa;" style="swimlane;fontStyle=1;align=center;verticalAlign=middle;childLayout=stackLayout;horizontal=1;startSize=83;horizontalStack=0;resizeParent=1;resizeParentMax=0;resizeLast=0;collapsible=1;marginBottom=0;swimlaneFillColor=#ffffff;strokeColor=#000000;strokeWidth=1;fillColor=none;fontSize=23;fontColor=#990000;perimeterSpacing=0;" parent="1" vertex="1">
          <mxGeometry x="450" y="40" width="240" height="143" as="geometry" />
        </mxCell>
        <mxCell id="DzmEyF1N2hQkVVIjbfLj-108" value="- uuid: String" style="text;strokeColor=none;fillColor=none;align=left;verticalAlign=top;spacingLeft=4;spacingRight=4;overflow=hidden;rotatable=0;points=[[0,0.5],[1,0.5]];portConstraint=eastwest;fontSize=20;" parent="DzmEyF1N2hQkVVIjbfLj-107" vertex="1">
          <mxGeometry y="83" width="240" height="26" as="geometry" />
        </mxCell>
        <mxCell id="DzmEyF1N2hQkVVIjbfLj-109" value="" style="line;strokeWidth=1;fillColor=none;align=left;verticalAlign=middle;spacingTop=-1;spacingLeft=3;spacingRight=3;rotatable=0;labelPosition=right;points=[];portConstraint=eastwest;" parent="DzmEyF1N2hQkVVIjbfLj-107" vertex="1">
          <mxGeometry y="109" width="240" height="8" as="geometry" />
        </mxCell>
        <mxCell id="DzmEyF1N2hQkVVIjbfLj-110" value=" " style="text;strokeColor=none;fillColor=none;align=left;verticalAlign=top;spacingLeft=4;spacingRight=4;overflow=hidden;rotatable=0;points=[[0,0.5],[1,0.5]];portConstraint=eastwest;" parent="DzmEyF1N2hQkVVIjbfLj-107" vertex="1">
          <mxGeometry y="117" width="240" height="26" as="geometry" />
        </mxCell>
        <mxCell id="DzmEyF1N2hQkVVIjbfLj-111" value="BaseEntity" style="swimlane;fontStyle=1;align=center;verticalAlign=middle;childLayout=stackLayout;horizontal=1;startSize=35;horizontalStack=0;resizeParent=1;resizeParentMax=0;resizeLast=0;collapsible=1;marginBottom=0;swimlaneFillColor=#ffffff;strokeColor=#000000;strokeWidth=1;fillColor=none;fontSize=23;fontColor=#990000;perimeterSpacing=0;" parent="1" vertex="1">
          <mxGeometry x="428" y="230" width="270" height="104" as="geometry" />
        </mxCell>
        <mxCell id="DzmEyF1N2hQkVVIjbfLj-112" value="- id: Long" style="text;strokeColor=none;fillColor=none;align=left;verticalAlign=top;spacingLeft=4;spacingRight=4;overflow=hidden;rotatable=0;points=[[0,0.5],[1,0.5]];portConstraint=eastwest;fontSize=20;" parent="DzmEyF1N2hQkVVIjbfLj-111" vertex="1">
          <mxGeometry y="35" width="270" height="35" as="geometry" />
        </mxCell>
        <mxCell id="DzmEyF1N2hQkVVIjbfLj-113" value="" style="line;strokeWidth=1;fillColor=none;align=left;verticalAlign=middle;spacingTop=-1;spacingLeft=3;spacingRight=3;rotatable=0;labelPosition=right;points=[];portConstraint=eastwest;" parent="DzmEyF1N2hQkVVIjbfLj-111" vertex="1">
          <mxGeometry y="70" width="270" height="8" as="geometry" />
        </mxCell>
        <mxCell id="DzmEyF1N2hQkVVIjbfLj-114" value=" " style="text;strokeColor=none;fillColor=none;align=left;verticalAlign=top;spacingLeft=4;spacingRight=4;overflow=hidden;rotatable=0;points=[[0,0.5],[1,0.5]];portConstraint=eastwest;" parent="DzmEyF1N2hQkVVIjbfLj-111" vertex="1">
          <mxGeometry y="78" width="270" height="26" as="geometry" />
        </mxCell>
        <mxCell id="DzmEyF1N2hQkVVIjbfLj-117" value="" style="endArrow=block;endSize=16;endFill=0;html=1;fontSize=20;entryX=0.504;entryY=0.846;entryDx=0;entryDy=0;entryPerimeter=0;exitX=0.5;exitY=0;exitDx=0;exitDy=0;" parent="1" source="31" target="DzmEyF1N2hQkVVIjbfLj-114" edge="1">
          <mxGeometry width="160" relative="1" as="geometry">
            <mxPoint x="530" y="480" as="sourcePoint" />
            <mxPoint x="690" y="480" as="targetPoint" />
          </mxGeometry>
        </mxCell>
        <mxCell id="DzmEyF1N2hQkVVIjbfLj-118" value="" style="endArrow=block;dashed=1;endFill=0;endSize=12;html=1;fontSize=20;exitX=0.471;exitY=0.962;exitDx=0;exitDy=0;exitPerimeter=0;entryX=0.5;entryY=0;entryDx=0;entryDy=0;" parent="1" source="DzmEyF1N2hQkVVIjbfLj-110" target="DzmEyF1N2hQkVVIjbfLj-111" edge="1">
          <mxGeometry width="160" relative="1" as="geometry">
            <mxPoint x="660" y="210" as="sourcePoint" />
            <mxPoint x="820" y="210" as="targetPoint" />
          </mxGeometry>
        </mxCell>
        <mxCell id="DzmEyF1N2hQkVVIjbfLj-119" value="" style="endArrow=block;endSize=16;endFill=0;html=1;fontSize=20;exitX=0;exitY=0.5;exitDx=0;exitDy=0;entryX=-0.007;entryY=1.057;entryDx=0;entryDy=0;entryPerimeter=0;" parent="1" source="DzmEyF1N2hQkVVIjbfLj-100" target="DzmEyF1N2hQkVVIjbfLj-112" edge="1">
          <mxGeometry width="160" relative="1" as="geometry">
            <mxPoint x="575" y="437.5" as="sourcePoint" />
            <mxPoint x="410" y="340" as="targetPoint" />
            <Array as="points">
              <mxPoint x="390" y="840" />
              <mxPoint x="390" y="302" />
            </Array>
          </mxGeometry>
        </mxCell>
        <mxCell id="dVRXr-Py-uLTCdK78p9r-99" value="Accommodation" style="swimlane;fontStyle=1;align=center;verticalAlign=middle;childLayout=stackLayout;horizontal=1;startSize=33;horizontalStack=0;resizeParent=1;resizeParentMax=0;resizeLast=0;collapsible=1;marginBottom=0;swimlaneFillColor=#ffffff;strokeColor=#000000;strokeWidth=1;fillColor=none;fontSize=23;fontColor=#990000;perimeterSpacing=0;" vertex="1" parent="1">
          <mxGeometry x="830" y="740" width="380" height="224" as="geometry" />
        </mxCell>
        <mxCell id="dVRXr-Py-uLTCdK78p9r-100" value="- name: String&#xa;- " style="text;strokeColor=none;fillColor=none;align=left;verticalAlign=top;spacingLeft=4;spacingRight=4;overflow=hidden;rotatable=0;points=[[0,0.5],[1,0.5]];portConstraint=eastwest;fontSize=20;" vertex="1" parent="dVRXr-Py-uLTCdK78p9r-99">
          <mxGeometry y="33" width="380" height="157" as="geometry" />
        </mxCell>
        <mxCell id="dVRXr-Py-uLTCdK78p9r-101" value="" style="line;strokeWidth=1;fillColor=none;align=left;verticalAlign=middle;spacingTop=-1;spacingLeft=3;spacingRight=3;rotatable=0;labelPosition=right;points=[];portConstraint=eastwest;" vertex="1" parent="dVRXr-Py-uLTCdK78p9r-99">
          <mxGeometry y="190" width="380" height="8" as="geometry" />
        </mxCell>
        <mxCell id="dVRXr-Py-uLTCdK78p9r-102" value=" " style="text;strokeColor=none;fillColor=none;align=left;verticalAlign=top;spacingLeft=4;spacingRight=4;overflow=hidden;rotatable=0;points=[[0,0.5],[1,0.5]];portConstraint=eastwest;" vertex="1" parent="dVRXr-Py-uLTCdK78p9r-99">
          <mxGeometry y="198" width="380" height="26" as="geometry" />
        </mxCell>
        <mxCell id="dVRXr-Py-uLTCdK78p9r-103" value="Cost" style="swimlane;fontStyle=1;align=center;verticalAlign=middle;childLayout=stackLayout;horizontal=1;startSize=35;horizontalStack=0;resizeParent=1;resizeParentMax=0;resizeLast=0;collapsible=1;marginBottom=0;swimlaneFillColor=#ffffff;strokeColor=#000000;strokeWidth=1;fillColor=none;fontSize=23;fontColor=#990000;perimeterSpacing=0;" vertex="1" parent="1">
          <mxGeometry x="80" y="520" width="270" height="164" as="geometry" />
        </mxCell>
        <mxCell id="dVRXr-Py-uLTCdK78p9r-104" value="- amount: String&#xa;- currency: Currency (enum)&#xa;&#xa;" style="text;strokeColor=none;fillColor=none;align=left;verticalAlign=top;spacingLeft=4;spacingRight=4;overflow=hidden;rotatable=0;points=[[0,0.5],[1,0.5]];portConstraint=eastwest;fontSize=20;" vertex="1" parent="dVRXr-Py-uLTCdK78p9r-103">
          <mxGeometry y="35" width="270" height="95" as="geometry" />
        </mxCell>
        <mxCell id="dVRXr-Py-uLTCdK78p9r-105" value="" style="line;strokeWidth=1;fillColor=none;align=left;verticalAlign=middle;spacingTop=-1;spacingLeft=3;spacingRight=3;rotatable=0;labelPosition=right;points=[];portConstraint=eastwest;" vertex="1" parent="dVRXr-Py-uLTCdK78p9r-103">
          <mxGeometry y="130" width="270" height="8" as="geometry" />
        </mxCell>
        <mxCell id="dVRXr-Py-uLTCdK78p9r-106" value=" " style="text;strokeColor=none;fillColor=none;align=left;verticalAlign=top;spacingLeft=4;spacingRight=4;overflow=hidden;rotatable=0;points=[[0,0.5],[1,0.5]];portConstraint=eastwest;" vertex="1" parent="dVRXr-Py-uLTCdK78p9r-103">
          <mxGeometry y="138" width="270" height="26" as="geometry" />
        </mxCell>
      </root>
    </mxGraphModel>
  </diagram>
</mxfile>
